:SAMPLES-PER-SECOND 30
:FULLY-SPECIFIED
:DEGREES
270
root  -10.3587 40.44 5.89935 -89.9771 -87.2566 89.4853
RightUpLeg  -5.11748 -25.8408 -12.6731
RightLeg  17.066 -9.49642 -1.05909
RightFoot  -4.68748 -0.357954 5.60606
RightToes  -2.9104e-010 0 -3.6325e-017
Spine  13.6338 2.34523 13.4942
Spine1  21.9883 6.60379 -5.88974
HEad  -8.33787 -14.7586 5.31002
LeftShoulder1  9.33663 -14.943 -44.0644
LeftArm  -9.5957 5.02235 -27.3695
LeftForeArm  40.0444 -36.6407 -5.94272
LeftHand  -0.244104 0.0205437 5.32207
RightShoulder  4.41964 9.8109 27.1583
RightArm  -29.0356 49.7064 20.4013
RightForeArm  -25.4214 42.8167 11.8275
RightHand  -5.12156 16.1637 -27.3965
LeftUpLeg  -11.2483 3.64912 1.85444
LeftLeg  6.48651 -4.15599 -2.94327
LeftFoot  6.08037 0.275218 -2.03777
LeftToes  -1.62803e-010 -2.57217e-011 -2.5681e-011
271
root  -10.4633 40.4512 6.0634 -64.4359 -87.0029 64.1336
RightUpLeg  -4.48236 -25.8037 -13.2369
RightLeg  16.655 -10.6516 -0.931561
RightFoot  -4.49926 -0.387992 5.97106
RightToes  -2.9104e-010 0 -3.6325e-017
Spine  13.6001 2.75191 13.9133
Spine1  21.8191 7.53463 -7.03049
HEad  -8.53782 -15.7455 5.79566
LeftShoulder1  9.32128 -14.9487 -43.9738
LeftArm  -10.1779 5.76371 -26.5738
LeftForeArm  38.128 -33.905 -5.35547
LeftHand  -0.244104 0.0205437 5.32207
RightShoulder  4.06531 9.46459 25.2387
RightArm  -31.3471 53.5237 18.0697
RightForeArm  -28.7778 35.4384 9.44086
RightHand  -5.46319 17.0755 -27.9979
LeftUpLeg  -11.4936 3.35682 1.4369
LeftLeg  6.54334 -4.98596 -3.05157
LeftFoot  6.06859 0.231501 -1.75324
LeftToes  -1.62803e-010 -2.57217e-011 -2.5681e-011
272
root  -10.568 40.4627 6.24084 -48.1365 -86.4948 47.9294
RightUpLeg  -3.75849 -25.4343 -13.746
RightLeg  16.1374 -11.8901 -0.772408
RightFoot  -4.24912 -0.422752 6.34702
RightToes  -2.9104e-010 0 -3.6325e-017
Spine  13.6065 3.05275 14.3532
Spine1  21.7341 8.38368 -8.23816
HEad  -8.74906 -16.3627 6.29201
LeftShoulder1  9.2826 -14.9608 -43.7511
LeftArm  -10.6196 6.54828 -25.919
LeftForeArm  36.1478 -30.9246 -4.75276
LeftHand  -0.244104 0.0205437 5.32207
RightShoulder  3.71649 9.01842 23.4888
RightArm  -33.4101 57.0586 15.3696
RightForeArm  -32.287 28.3185 7.57221
RightHand  -5.68966 17.6743 -28.3753
LeftUpLeg  -11.6545 3.09715 1.06455
LeftLeg  6.73245 -5.61412 -3.08229
LeftFoot  5.97214 0.190757 -1.49162
LeftToes  -1.62803e-010 -2.57217e-011 -2.5681e-011
273
root  -10.6761 40.4788 6.42651 -38.9391 -86.0144 38.71
RightUpLeg  -2.88689 -24.6795 -14.2629
RightLeg  15.4503 -13.2504 -0.495921
RightFoot  -3.94199 -0.459387 6.68067
RightToes  -2.9104e-010 0 -3.6325e-017
Spine  13.7068 3.28571 14.8105
Spine1  21.6281 9.20189 -9.52806
HEad  -8.92577 -16.6907 6.83596
LeftShoulder1  9.20989 -14.9844 -43.3302
LeftArm  -10.7541 7.40729 -25.4856
LeftForeArm  34.2722 -27.7347 -4.13285
LeftHand  -0.244104 0.0205437 5.32207
RightShoulder  3.41857 8.5864 22.0038
RightArm  -36.0163 59.974 12.3341
RightForeArm  -34.5474 21.8013 6.48135
RightHand  -5.7908 17.95 -28.5277
LeftUpLeg  -11.6289 2.84197 0.741024
LeftLeg  6.91696 -6.02317 -3.05941
LeftFoot  5.8184 0.147702 -1.21357
LeftToes  -1.62803e-010 -2.57217e-011 -2.5681e-011
274
root  -10.7884 40.4989 6.6126 -33.1004 -85.6199 32.8986
RightUpLeg  -2.05309 -23.4765 -14.7269
RightLeg  14.616 -14.9051 -0.0870783
RightFoot  -3.59659 -0.495948 6.95543
RightToes  -2.9104e-010 0 -3.6325e-017
Spine  13.7527 3.51522 15.1395
Spine1  21.4237 9.9139 -10.6521
HEad  -9.14012 -16.8535 7.42008
LeftShoulder1  9.13999 -14.9971 -42.9495
LeftArm  -10.3552 8.38603 -25.1188
LeftForeArm  32.4918 -24.6334 -3.57862
LeftHand  -0.244104 0.0205437 5.32207
RightShoulder  3.16958 8.22813 20.6612
RightArm  -41.5735 62.1576 9.13536
RightForeArm  -32.5215 15.6199 6.65931
RightHand  -5.73963 17.9207 -28.3219
LeftUpLeg  -11.5574 2.66333 0.484567
LeftLeg  6.99369 -6.37352 -3.07772
LeftFoot  5.63507 0.106434 -0.942844
LeftToes  -1.62803e-010 -2.57217e-011 -2.5681e-011
275
root  -10.8976 40.5194 6.79699 -28.8332 -85.3299 28.8143
RightUpLeg  -1.4412 -21.9555 -15.0337
RightLeg  13.7027 -16.7676 0.370813
RightFoot  -3.2225 -0.534665 7.21385
RightToes  -2.9104e-010 0 -3.6325e-017
Spine  13.6278 3.76321 15.2875
Spine1  21.1862 10.4738 -11.4861
HEad  -9.48386 -16.8788 7.98764
LeftShoulder1  9.11778 -14.9954 -42.845
LeftArm  -9.73529 9.48905 -24.6615
LeftForeArm  31.1092 -22.0053 -3.30134
LeftHand  -0.244104 0.0205437 5.32207
RightShoulder  2.94885 7.88492 19.4555
RightArm  -46.6296 64.0055 6.30171
RightForeArm  -29.8396 10.0425 6.27757
RightHand  -5.545 17.5912 -27.7856
LeftUpLeg  -11.6102 2.5597 0.287083
LeftLeg  7.01721 -6.67373 -3.12764
LeftFoot  5.43505 0.0708262 -0.704434
LeftToes  -1.62803e-010 -2.57217e-011 -2.5681e-011
276
root  -10.995 40.5363 6.98043 -25.8984 -85.2069 26.1053
RightUpLeg  -0.987122 -20.4092 -15.2065
RightLeg  12.7617 -18.4825 0.797688
RightFoot  -2.83531 -0.577369 7.49252
RightToes  -2.9104e-010 0 -3.6325e-017
Spine  13.4734 3.99065 15.3563
Spine1  20.9437 10.9432 -12.2017
HEad  -9.93742 -16.7581 8.51255
LeftShoulder1  9.13438 -14.9983 -42.928
LeftArm  -9.59979 10.7027 -24.2069
LeftForeArm  30.7371 -19.9887 -3.40827
LeftHand  -0.244104 0.0205437 5.32207
RightShoulder  2.76172 7.51081 18.5731
RightArm  -49.6316 65.7849 3.95424
RightForeArm  -28.6107 5.36056 5.27302
RightHand  -5.36475 17.2116 -27.3617
LeftUpLeg  -11.73 2.44854 0.116118
LeftLeg  7.08811 -6.77597 -3.12141
LeftFoot  5.19751 0.0398957 -0.491797
LeftToes  -1.62803e-010 -2.57217e-011 -2.5681e-011
277
root  -11.0783 40.5467 7.16112 -24.2627 -85.2572 24.5954
RightUpLeg  -0.529658 -19.0071 -15.3477
RightLeg  11.8148 -19.8621 1.19211
RightFoot  -2.47542 -0.621843 7.79105
RightToes  -2.9104e-010 0 -3.6325e-017
Spine  13.465 4.16892 15.4097
Spine1  20.6594 11.3639 -12.8981
HEad  -10.4182 -16.5764 9.00409
LeftShoulder1  9.15883 -14.9998 -43.0365
LeftArm  -9.72684 11.9591 -23.9485
LeftForeArm  31.0295 -18.537 -3.56299
LeftHand  -0.244104 0.0205437 5.32207
RightShoulder  2.61884 7.15332 18.0327
RightArm  -52.2261 67.3393 2.04625
RightForeArm  -27.6895 1.69329 4.41065
RightHand  -5.39153 17.1636 -27.545
LeftUpLeg  -11.7671 2.36235 -0.0343525
LeftLeg  7.21822 -6.71201 -3.081
LeftFoot  4.8891 0.0129608 -0.2991
LeftToes  -1.62803e-010 -2.57217e-011 -2.5681e-011
278
root  -11.1486 40.5515 7.33579 -23.5778 -85.4378 23.9563
RightUpLeg  -0.0739309 -17.7764 -15.4801
RightLeg  10.886 -20.9133 1.57281
RightFoot  -2.16678 -0.664038 8.07842
RightToes  -2.9104e-010 0 -3.6325e-017
Spine  13.5129 4.33142 15.4077
Spine1  20.4375 11.72 -13.4367
HEad  -10.8846 -16.4455 9.45799
LeftShoulder1  9.18827 -14.9939 -43.1987
LeftArm  -9.96577 13.1029 -23.8989
LeftForeArm  31.6102 -17.5878 -3.65797
LeftHand  -0.244104 0.0205437 5.32207
RightShoulder  2.51483 6.87862 17.6513
RightArm  -54.2775 68.551 0.702615
RightForeArm  -27.2803 -0.793688 3.79773
RightHand  -5.57003 17.3699 -28.164
LeftUpLeg  -11.7234 2.44992 -0.13468
LeftLeg  7.36954 -6.66989 -3.1199
LeftFoot  4.51445 -0.00828912 -0.137278
LeftToes  -1.62803e-010 -2.57217e-011 -2.5681e-011
279
root  -11.2048 40.5554 7.50262 -23.7555 -85.7678 24.1779
RightUpLeg  0.257247 -16.8027 -15.5602
RightLeg  10.0362 -21.5344 1.90379
RightFoot  -1.87255 -0.70147 8.30108
RightToes  -2.9104e-010 0 -3.6325e-017
Spine  13.4475 4.51087 15.3713
Spine1  20.458 12.0456 -13.8039
HEad  -11.3107 -16.3697 9.82463
LeftShoulder1  9.22253 -14.975 -43.4165
LeftArm  -10.2403 13.9631 -24.0462
LeftForeArm  32.0455 -17.0898 -3.68624
LeftHand  -0.244104 0.0205437 5.32207
RightShoulder  2.4437 6.68612 17.3903
RightArm  -55.8124 69.5208 -0.257562
RightForeArm  -27.3611 -2.31466 3.42595
RightHand  -5.69935 17.4694 -28.664
LeftUpLeg  -11.6923 2.69279 -0.181928
LeftLeg  7.54077 -6.59411 -3.21599
LeftFoot  4.13476 -0.0215916 -0.0258497
LeftToes  -1.62803e-010 -2.57217e-011 -2.5681e-011
